<?xml version="1.0" encoding="UTF-8"?>
<svg id="Capa_4" data-name="Capa 4" xmlns="http://www.w3.org/2000/svg" viewBox="0 0 119.36 119.37">
  <defs>
    <style>
      .cls-1 {
        fill: #604092;
        fill-rule: evenodd;
      }
    </style>
  </defs>
  <path class="cls-1" d="M78.59,40.28c-.23-.19-.5-.3-.8-.33l-11.48-1.08-4.57-10.58c-.12-.28-.31-.5-.56-.66-.25-.17-.53-.25-.83-.25s-.58.08-.83.25-.44.39-.56.66l-4.57,10.58-11.48,1.08c-.3.03-.57.13-.8.32s-.4.43-.49.71c-.09.29-.1.58-.02.87.08.29.23.54.46.73l8.65,7.62h0s0,0,0,0h0l-2.53,11.25c-.06.3-.04.58.07.87.11.28.29.51.53.69.24.18.51.27.81.29.3.01.58-.06.84-.21l9.93-5.87,9.93,5.87c.23.14.48.21.75.21.23,0,.45-.05.66-.15.21-.1.38-.24.53-.42.14-.18.24-.38.3-.6.05-.22.05-.45,0-.67l-2.53-11.25,8.66-7.62c.22-.2.37-.45.45-.74.08-.29.07-.58-.02-.86-.09-.29-.26-.52-.49-.71Z"/>
  <path class="cls-1" d="M96.98,103.86l-9.77-32.17c5.53-6.65,8.89-15.35,8.89-24.88,0-20.87-16.08-37.8-35.91-37.8S24.28,25.94,24.28,46.81c0,9.81,3.56,18.75,9.38,25.47l-9.59,31.58s-1.33,4.11,2.36,2.36c3.69-1.75,12.16-6.35,12.16-6.35l6.9,11.13s1.82,3.27,3.15,0c1.07-2.61,6.31-19.79,8.37-26.55,1.05.1,2.11.16,3.19.16,1.3,0,2.58-.08,3.84-.22,2.04,6.71,7.32,23.99,8.39,26.61,1.33,3.27,3.15,0,3.15,0l6.9-11.13s8.47,4.6,12.16,6.35c3.69,1.75,2.36-2.36,2.36-2.36ZM60.19,77.38c-16.04,0-29.04-13.68-29.04-30.57s13-30.57,29.04-30.57,29.04,13.68,29.04,30.57-13,30.57-29.04,30.57Z"/>
</svg>