<?xml version="1.0" encoding="UTF-8"?>
<svg id="Capa_4" data-name="Capa 4" xmlns="http://www.w3.org/2000/svg" viewBox="0 0 119.36 119.37">
  <defs>
    <style>
      .cls-1 {
        fill-rule: evenodd;
      }

      .cls-1, .cls-2 {
        fill: #604092;
      }
    </style>
  </defs>
  <path class="cls-1" d="M114.29,85.35c-.22-.18-.47-.28-.75-.31l-10.81-1.02-4.3-9.97c-.11-.26-.29-.47-.53-.62-.24-.16-.5-.23-.78-.23s-.55.08-.78.23-.41.36-.53.62l-4.3,9.97-10.81,1.02c-.28.03-.54.13-.76.3s-.38.4-.47.67c-.09.27-.09.54-.02.82.08.27.22.5.43.69l8.15,7.18h0s0,0,0,0h0l-2.38,10.6c-.06.28-.04.55.07.82.1.26.27.48.5.65.23.17.48.26.76.27.28.01.54-.05.79-.2l9.35-5.53,9.35,5.53c.22.13.45.2.71.2.22,0,.42-.05.62-.14.2-.09.36-.22.5-.39.14-.17.23-.36.28-.57.05-.21.05-.42,0-.63l-2.38-10.6,8.16-7.18c.21-.19.35-.42.43-.69.07-.27.07-.54-.02-.81-.09-.27-.24-.49-.46-.67Z"/>
  <path class="cls-1" d="M39.41,85.35c-.22-.18-.47-.28-.75-.31l-10.81-1.02-4.3-9.97c-.11-.26-.29-.47-.53-.62-.24-.16-.5-.23-.78-.23s-.55.08-.78.23-.41.36-.53.62l-4.3,9.97-10.81,1.02c-.28.03-.54.13-.76.3s-.38.4-.47.67c-.09.27-.09.54-.02.82.08.27.22.5.43.69l8.15,7.18h0s0,0,0,0h0l-2.38,10.6c-.06.28-.04.55.07.82.1.26.27.48.5.65.23.17.48.26.76.27.28.01.54-.05.79-.2l9.35-5.53,9.35,5.53c.22.13.45.2.71.2.22,0,.42-.05.62-.14.2-.09.36-.22.5-.39.14-.17.23-.36.28-.57.05-.21.05-.42,0-.63l-2.38-10.6,8.16-7.18c.21-.19.35-.42.43-.69.07-.27.07-.54-.02-.81-.09-.27-.24-.49-.46-.67Z"/>
  <path class="cls-2" d="M90.62,19.79H28.37c-1.54,0-2.79-1.25-2.79-2.79s1.25-2.79,2.79-2.79h62.25c1.54,0,2.79,1.25,2.79,2.79s-1.25,2.79-2.79,2.79Z"/>
  <path class="cls-2" d="M52.56,96.14c-.41,0-.82-.09-1.21-.28-1.39-.67-1.97-2.34-1.3-3.72,5.49-11.37,1.51-15.68-10.39-24.24-12.49-8.99-11.62-25.61-11.49-27.29l.23-20.11c.02-1.53,1.26-2.76,2.79-2.76h.03c1.54.02,2.77,1.28,2.76,2.82l-.23,20.2c0,.07,0,.14,0,.21-.01.14-1.1,14.99,9.19,22.4,12.2,8.79,19.64,15.7,12.16,31.2-.48,1-1.48,1.58-2.51,1.58Z"/>
  <path class="cls-2" d="M66.49,96.14c-1.04,0-2.03-.58-2.51-1.58-7.48-15.5-.04-22.41,12.16-31.2,10.28-7.4,9.2-22.26,9.19-22.4,0-.06,0-.14,0-.2l-.24-20.2c-.02-1.54,1.22-2.8,2.76-2.82h.03c1.53,0,2.77,1.23,2.79,2.76l.23,20.11c.12,1.68.99,18.3-11.5,27.29-11.9,8.57-15.88,12.88-10.39,24.24.67,1.39.09,3.06-1.3,3.72-.39.19-.8.28-1.21.28Z"/>
  <path class="cls-2" d="M30.72,54.56c-.1,0-.21,0-.31-.02-7.57-.84-13.27-3.82-16.95-8.85-6.32-8.64-4.13-20.09-4.03-20.57.26-1.3,1.41-2.24,2.74-2.24h0l18.32.03c1.54,0,2.79,1.25,2.79,2.79,0,1.54-1.25,2.79-2.79,2.79h0l-15.84-.03c-.22,3.23-.08,9.3,3.35,13.97,2.72,3.7,7.11,5.91,13.05,6.57,1.53.17,2.63,1.55,2.46,3.08-.16,1.43-1.37,2.48-2.77,2.48Z"/>
  <path class="cls-2" d="M88.35,54.56c-1.4,0-2.61-1.05-2.77-2.48-.17-1.53.93-2.91,2.46-3.08,5.95-.66,10.38-2.89,13.17-6.61,3.49-4.66,3.74-10.71,3.58-13.96l-16.19.06h-.01c-1.54,0-2.78-1.24-2.79-2.78,0-1.54,1.24-2.8,2.78-2.8l18.72-.07h.01c1.35,0,2.5.96,2.74,2.29.09.48,2.08,11.93-4.34,20.56-3.75,5.03-9.48,8.01-17.05,8.85-.1.01-.21.02-.31.02Z"/>
  <path class="cls-2" d="M75.59,108.27h-.01l-32.18-.15c-1.44,0-2.63-1.1-2.76-2.54-.05-.58-.42-5.81,3.11-9.66,2.25-2.46,5.46-3.71,9.54-3.71h13.16c.62,0,5.77.19,9.2,4.01,2.17,2.41,3.09,5.61,2.74,9.51-.13,1.44-1.34,2.54-2.78,2.54ZM46.43,102.55l26.31.12c-.19-1.09-.6-1.99-1.23-2.7-1.84-2.07-5.1-2.19-5.14-2.19h-13.1c-2.45,0-4.27.64-5.42,1.9-.78.85-1.2,1.92-1.42,2.87Z"/>
  <g>
    <path class="cls-2" d="M65.22,58.57h-7.27v-20.31l-7.27,3.73v-6.72l9.81-5.63h4.72v28.94Z"/>
    <path class="cls-2" d="M65.22,59.31h-7.27c-.41,0-.74-.33-.74-.74v-19.11l-6.2,3.18c-.23.12-.5.11-.72-.03-.22-.13-.35-.37-.35-.63v-6.72c0-.26.14-.51.37-.64l9.81-5.63c.11-.06.24-.1.37-.1h4.72c.41,0,.74.33.74.74v28.94c0,.41-.33.74-.74.74ZM58.69,57.84h5.8v-27.47h-3.79l-9.27,5.32v5.09l6.2-3.18c.23-.12.5-.11.72.03s.35.37.35.63v19.57Z"/>
  </g>
</svg>