<?xml version="1.0" encoding="UTF-8"?>
<svg id="Capa_4" data-name="Capa 4" xmlns="http://www.w3.org/2000/svg" viewBox="0 0 119.36 119.37">
  <defs>
    <style>
      .cls-1 {
        fill: none;
      }

      .cls-2 {
        fill-rule: evenodd;
      }

      .cls-2, .cls-3 {
        fill: #604092;
      }
    </style>
  </defs>
  <path class="cls-3" d="M86.59,49.1c-12.29,0-22.25,9.96-22.25,22.25s9.96,22.25,22.25,22.25,22.25-9.96,22.25-22.25-9.96-22.25-22.25-22.25ZM96.91,68.62l-11.09,11.09c-.63.63-1.46.95-2.29.95s-1.66-.32-2.29-.95l-5.51-5.51c-1.26-1.26-1.26-3.31,0-4.58,1.26-1.26,3.31-1.26,4.58,0l3.22,3.23,8.81-8.81c1.26-1.26,3.31-1.26,4.58,0,1.26,1.26,1.26,3.31,0,4.58Z"/>
  <path class="cls-2" d="M69.14,89.65s4.59,6.32,15.25,7.54l-5.89,13.25s-.87,2.08-3.55.95l-3.64-5.28s-.43-.78-1.39-.52-3.81,1.21-3.81,1.21c0,0-3.98.78-3.12-3.72l6.15-13.43Z"/>
  <path class="cls-2" d="M104.53,89.65s-4.59,6.32-15.25,7.54l5.89,13.25s.87,2.08,3.55.95l3.64-5.28s.43-.78,1.39-.52,3.81,1.21,3.81,1.21c0,0,3.98.78,3.12-3.72l-6.15-13.43Z"/>
  <path class="cls-3" d="M84.61,34.47h-51.97c-1.82,0-3.29-1.47-3.29-3.29s1.47-3.29,3.29-3.29h51.97c1.82,0,3.29,1.47,3.29,3.29s-1.47,3.29-3.29,3.29Z"/>
  <path class="cls-3" d="M60.59,49.72h-27.95c-1.82,0-3.29-1.47-3.29-3.29s1.47-3.29,3.29-3.29h27.95c1.82,0,3.29,1.47,3.29,3.29s-1.47,3.29-3.29,3.29Z"/>
  <g>
    <path class="cls-1" d="M95.47,40.65c0,3.22,1.89,6,4.62,7.3v-14.59c-2.73,1.3-4.62,4.07-4.62,7.3Z"/>
    <path class="cls-1" d="M54.15,77.67c3.2,0,5.96,1.86,7.27,4.56h35.57c1.71,0,3.11-1.4,3.11-3.11v-31.17c-2.73-1.3-4.62-4.07-4.62-7.3s1.89-6,4.62-7.3v-14.08c0-1.71-1.4-3.11-3.11-3.11H20.04c-1.71,0-3.11,1.4-3.11,3.11v59.84c0,1.71,1.4,3.11,3.11,3.11h26.84c1.31-2.7,4.07-4.56,7.27-4.56Z"/>
    <path class="cls-3" d="M97.45,9.7H19.1c-5.13,0-9.33,4.2-9.33,9.33v60.8c0,5.13,4.2,9.33,9.33,9.33h27.72c-.48-1.04-.76-2.19-.76-3.4s.3-2.46.82-3.53h-26.84c-1.71,0-3.11-1.4-3.11-3.11V19.28c0-1.71,1.4-3.11,3.11-3.11h76.94c1.71,0,3.11,1.4,3.11,3.11v14.08c1.05-.5,2.22-.79,3.47-.79,1.15,0,2.24.24,3.23.68v-14.21c0-5.13-4.2-9.33-9.33-9.33Z"/>
    <path class="cls-3" d="M100.09,33.36v14.59c1.05.5,2.22.79,3.47.79,1.15,0,2.24-.24,3.23-.68v-14.82c-.99-.43-2.08-.68-3.23-.68-1.24,0-2.41.29-3.47.79Z"/>
    <path class="cls-3" d="M61.41,82.23h-14.53c-.52,1.07-.82,2.26-.82,3.53s.28,2.37.76,3.4h14.65c.48-1.04.76-2.19.76-3.4s-.3-2.46-.82-3.53Z"/>
  </g>
  <path class="cls-3" d="M38.03,75.37l-7.73-7.95c-1.06-1.09-1.03-2.82.05-3.88,1.09-1.06,2.82-1.03,3.88.05l4.46,4.58,10.56-7.48c1.24-.87,2.95-.58,3.82.65s.58,2.95-.65,3.82l-14.39,10.19Z"/>
</svg>